<?xml version="1.0" encoding="UTF-8"?>
<!DOCTYPE svg PUBLIC "-//W3C//DTD SVG 1.1//EN" "http://www.w3.org/Graphics/SVG/1.1/DTD/svg11.dtd">
<!-- Creator: CorelDRAW 2020 (64-Bit) -->
<svg xmlns="http://www.w3.org/2000/svg" xml:space="preserve" width="50px" height="45px" version="1.1" style="shape-rendering:geometricPrecision; text-rendering:geometricPrecision; image-rendering:optimizeQuality; fill-rule:evenodd; clip-rule:evenodd"
viewBox="0 0 1.61 1.46"
 xmlns:xlink="http://www.w3.org/1999/xlink"
 xmlns:xodm="http://www.corel.com/coreldraw/odm/2003">
 <defs>
  <style type="text/css">
   <![CDATA[
    .fil0 {fill:#FF4C4C}
   ]]>
  </style>
 </defs>
 <g id="Слой_x0020_1">
  <metadata id="CorelCorpID_0Corel-Layer"/>
  <path class="fil0" d="M0 0.42l0 0.03c0,0.12 0.07,0.26 0.12,0.34 0.01,0.01 0.02,0.02 0.02,0.03 0.04,0.05 0.07,0.08 0.1,0.13l0.32 0.3 0.21 0.18c0.01,0.01 0.02,0.02 0.03,0.03 0.01,-0.01 0.02,-0.01 0.03,-0.02l-0.32 -0.54 0.21 0.05 -0.26 -0.35 0.29 0.03 -0.29 -0.4 0.36 0.07 -0.06 -0.13c0,-0.01 -0.01,-0.02 -0.02,-0.03 -0.06,-0.08 -0.17,-0.14 -0.3,-0.14 -0.08,0 -0.13,0.01 -0.2,0.04 -0.15,0.06 -0.24,0.22 -0.24,0.38zm0.93 0.94l0.13 -0.1c0.03,-0.03 0.09,-0.08 0.12,-0.11 0.04,-0.04 0.07,-0.08 0.11,-0.11 0.01,-0.02 0.02,-0.02 0.03,-0.03l0.1 -0.13c0.01,-0.01 0.02,-0.02 0.03,-0.03 0.04,-0.06 0.09,-0.15 0.12,-0.22 0.02,-0.07 0.04,-0.13 0.04,-0.2l0 -0.03c0,-0.08 -0.03,-0.16 -0.08,-0.23 -0.01,-0.02 -0.03,-0.03 -0.05,-0.05 -0.01,-0.02 -0.04,-0.04 -0.06,-0.05 -0.09,-0.06 -0.16,-0.07 -0.28,-0.07 -0.08,0 -0.16,0.04 -0.21,0.08 -0.02,0.01 -0.03,0.02 -0.05,0.04l0.14 0.35 -0.26 -0.05 0.26 0.36 -0.29 -0.02 0.3 0.4 -0.26 -0.06 0.16 0.26z"/>
 </g>
</svg>
