<?xml version="1.0" encoding="UTF-8"?>
<!DOCTYPE svg PUBLIC "-//W3C//DTD SVG 1.1//EN" "http://www.w3.org/Graphics/SVG/1.1/DTD/svg11.dtd">
<!-- Creator: CorelDRAW 2020 (64-Bit) -->
<svg xmlns="http://www.w3.org/2000/svg" xml:space="preserve" width="50px" height="45px" version="1.1" style="shape-rendering:geometricPrecision; text-rendering:geometricPrecision; image-rendering:optimizeQuality; fill-rule:evenodd; clip-rule:evenodd"
viewBox="0 0 1.47 1.34"
 xmlns:xlink="http://www.w3.org/1999/xlink"
 xmlns:xodm="http://www.corel.com/coreldraw/odm/2003">
 <defs>
  <style type="text/css">
   <![CDATA[
    .fil0 {fill:#FF4C4C}
   ]]>
  </style>
 </defs>
 <g id="Слой_x0020_1">
  <metadata id="CorelCorpID_0Corel-Layer"/>
  <path class="fil0" d="M0 0.38l0 0.03c0,0.11 0.07,0.24 0.11,0.31 0.01,0.01 0.01,0.02 0.02,0.03 0.03,0.05 0.06,0.08 0.09,0.12l0.29 0.28 0.2 0.16c0.01,0.01 0.02,0.02 0.03,0.03 0.02,-0.02 0.04,-0.03 0.06,-0.05l0.17 -0.14c0.03,-0.03 0.08,-0.07 0.11,-0.1 0.03,-0.03 0.07,-0.07 0.1,-0.1 0.01,-0.01 0.02,-0.02 0.03,-0.03l0.09 -0.11c0.01,-0.01 0.02,-0.02 0.02,-0.03 0.04,-0.06 0.09,-0.14 0.12,-0.2 0.02,-0.06 0.03,-0.12 0.03,-0.18l0 -0.03c0,-0.08 -0.02,-0.15 -0.07,-0.21 -0.01,-0.02 -0.03,-0.04 -0.04,-0.05 -0.02,-0.02 -0.04,-0.03 -0.06,-0.04 -0.09,-0.06 -0.15,-0.07 -0.26,-0.07 -0.07,0 -0.14,0.04 -0.19,0.07 -0.04,0.03 -0.06,0.06 -0.09,0.1 -0.01,0.01 -0.02,0.03 -0.03,0.04 0,-0.02 -0.04,-0.07 -0.05,-0.08 -0.06,-0.08 -0.16,-0.13 -0.27,-0.13 -0.08,0 -0.13,0.01 -0.19,0.03 -0.13,0.06 -0.22,0.21 -0.22,0.35z"/>
 </g>
</svg>
