<svg xmlns="http://www.w3.org/2000/svg" xmlns:xlink="http://www.w3.org/1999/xlink" width="64" height="64" viewBox="0 0 64 64">
    <defs>
        <linearGradient id="prefix__d" x1="50.034%" x2="50.034%" y1="100.024%" y2="0%">
            <stop offset="0%" stop-color="#FFF"/>
            <stop offset="29.5%" stop-color="#FDFDFD"/>
            <stop offset="47.412%" stop-color="#F6F6F6"/>
            <stop offset="70.995%" stop-color="#E9E9E9"/>
            <stop offset="100%" stop-color="#D7D7D7"/>
        </linearGradient>
        <circle id="prefix__a" cx="32" cy="32" r="32"/>
        <path id="prefix__c" d="M48.9 68.149l-48.613.204s-.21-10.46-.21-14.678c0-5.527 2.32-6.983 5.283-8.501 3.204-1.642 5.543-2.087 5.543-2.087S8.017 34.172 8.226 28.96c.044-1.876.253-3.745.625-5.585 1.67-8.897 1.246-10.469 3.024-14.54C14.97 1.752 21.336.07 24.758.006c2.992.008 5.753.992 8.8 3.86 1.612 1.517 3.255 4.623 3.798 9.234.504 4.28 2.231 5.814 2.707 12.47.121 1.685.664 3.515.765 5.118.348 5.552-3.432 12.065-3.432 12.065s3.045.502 5.249 1.484c3.172 1.414 6.495 4.342 6.148 9.274-.065 5.262.108 14.638.108 14.638z"/>
    </defs>
    <g fill="none" fill-rule="evenodd">
        <mask id="prefix__b" fill="#fff">
            <use xlink:href="#prefix__a"/>
        </mask>
        <circle cx="32" cy="32" r="31.5" fill="#fff"/>
        <g mask="url(#prefix__b)">
            <g transform="translate(7.53 8.941)">
                <mask id="prefix__e" fill="#fff">
                    <use xlink:href="#prefix__c"/>
                </mask>
                <use fill="#FFF" xlink:href="#prefix__c"/>
                <path fill="url(#prefix__d)" fill-rule="nonzero" d="M31.728 30.666s13.782 16.375-8.89 16.375c-17.68 0-5.675-16.437-5.675-16.437s3.692 4.168 7.402 4.168c3.063 0 5.818-2.607 7.163-4.106z" mask="url(#prefix__e)" opacity=".563"/>
                <path fill="#CCC" d="M50.438 64.162l-52.207-1.14s-10.668-3.96-10.668-8.123c0-5.455 1.495-6.339 4.474-7.837 3.221-1.62 8.226-11.399 15.809-4.94-11.646 2.7 1.31 5.806 12.252 5.98 2.809.043 4.53 2.567 4.53 2.567s1.261-2.484 5.257-2.468c7.245.029 23.892-.452 13.88-6.418 18.181-13.412 4.236.167 13.116 7.153 2.725 2.143-6.2-1.801-6.55 3.068-.066 5.195.107 12.158.107 12.158z" mask="url(#prefix__e)"/>
                <path fill="#CCC" d="M26.378 8.386s-.129 1.184-.465 1.84c-.683 1.333-1.992 3.666-4.034 5.651-1.823 1.773-5.563 2.732-5.563 2.732l-1.002 1.59s-1.073-1.985-1.547-.215c0 2.117.791 4.11 1.15 5.167.437.907.999.868.999.868.07.83.248 1.649.532 2.433.463 1.273.552 1.942 1.73 3.263.13.146.312 2.923.312 2.923s.813 7.264-7.548 8.607c-2.44-5.077-18.109 2.248-9.78-3.156-3.52-1.227 2.572-3.501 2.572-3.501s-13.998-16.502-14.222-19.352c-.224-2.85.758-12.732.758-12.732L23.578-6.265l9.244 2.339 10.47 9.168s2.101 7.882 2.145 8.434c.043.552-2.688 18.804-2.688 18.804s6.1 3.959 5.564 4.94c-.536.982-9.842 1.331-10.794 5.398-7.565-1.105-7.062-6.697-7.105-8.23.062.359.275-3.068.275-3.068s.871-.859 1.559-2.47c.421-.954.65-1.981.675-3.023 0 0 .499-.16.893-.943C34.485 23.562 35 20.05 35 20.05s-.263-2.077-1.793.001c.113-.488.015-1.983.015-1.983s-.408-6.545-5.502-8.483c-.603-.182-1.095-.622-1.343-1.2z" mask="url(#prefix__e)"/>
            </g>
        </g>
        <path stroke="#CCC" d="M45.01 51.765s3.054.521 5.264 1.543c1.037.48 2.907 1.757 3.844 2.588M10.353 56c.585-.399 1.86-1.362 2.53-1.717 3.213-1.708 5.559-2.171 5.559-2.171" mask="url(#prefix__b)" opacity=".45"/>
    </g>
</svg>
