<svg xmlns="http://www.w3.org/2000/svg" xmlns:xlink="http://www.w3.org/1999/xlink" width="64" height="64" viewBox="0 0 64 64">
    <defs>
        <linearGradient id="prefix__e" x1="50.013%" x2="50%" y1="100.024%" y2="9.518%">
            <stop offset="0%" stop-color="#FFF"/>
            <stop offset="29.5%" stop-color="#FDFDFD"/>
            <stop offset="47.412%" stop-color="#F6F6F6"/>
            <stop offset="70.995%" stop-color="#E9E9E9"/>
            <stop offset="100%" stop-color="#D7D7D7"/>
        </linearGradient>
        <linearGradient id="prefix__f" x1="50.016%" x2="50%" y1="100.024%" y2="9.518%">
            <stop offset="0%" stop-color="#FFF"/>
            <stop offset="29.5%" stop-color="#FDFDFD"/>
            <stop offset="47.412%" stop-color="#F6F6F6"/>
            <stop offset="70.995%" stop-color="#E9E9E9"/>
            <stop offset="100%" stop-color="#D7D7D7"/>
        </linearGradient>
        <circle id="prefix__a" cx="32" cy="32" r="32"/>
        <path id="prefix__c" d="M2.743 56.654c1.084-5.318 2.578-9.739 6.804-12.115 4.225-2.377 10.363-2.776 13.06-3.615.686-.713.456-1.707.553-4.405.048-1.347-.607-2.896-.607-2.896-.322-.352-.587-.753-.786-1.19-.486-1.201-1.475-4.421-1.475-4.421-.37-.086-.734-.2-1.088-.34-.67-.255-.837-1.445-.92-1.785-.085-.34-.42-1.871-.587-2.55-.168-.68-.837-1.616-.92-2.296-.085-.68 1.543-.314 1.543-.314l.287-1.334-.572-.988.008-1.24s.1-1.358-.151-2.378c-.252-1.02.16-2.333.578-3.353.288-.76.506-1.545.654-2.345l-.281-.61s-.102-1.456.222-1.127c.325.33 1.05-.679 1.05-.679l-.313-.256.374-.255.548-.712.363-.33.293-.34.428-.293.603-.18.058-.547.502-.425.325-.548 1.553.113.167-1.055 1.471.236 1.172-.51.837-.255.67.15.44-.987.49.256V.653l1.067.371.301-.65 1.308.6.635.597.769-.07 1.933.058.947.803.839.35.584.415.503.425.837.085.084.994.167.425.754-.255.168.595.418.765 1.089.255-.095.697.017.273.659.087.651 1.137s-.144 2.03.208 2.889c.419 1.02.32 2.519.07 3.54-.15.65-.179 1.323-.084 1.984l-.374 1.381-.572 2.095.692-.394s1.088.255 1.005.935c-.084.68-.43 1.813-.597 2.494-.167.68-.242 1.814-.326 2.154-.084.34-.51 2.058-1.18 2.314-.46.146-.952.15-1.414.01 0 0-.733 3.769-1.062 4.343-.688 1.202-.77 1.895-.77 1.895-.13.692-.138 1.274-.168 1.979-.097 1.483.084 4.066.503 4.67 1.786.745 7.863 1.168 12.089 3.545 4.225 2.376 5.405 6.969 6.488 12.287 1.083 5.318 2.163 10.676 2.163 10.676H.345s1.385-5.78 2.398-10.753z"/>
    </defs>
    <g fill="none" fill-rule="evenodd">
        <mask id="prefix__b" fill="#fff">
            <use xlink:href="#prefix__a"/>
        </mask>
        <circle cx="32" cy="32" r="31.5" fill="#fff"/>
        <g mask="url(#prefix__b)">
            <g transform="translate(1.412 9.882)">
                <mask id="prefix__d" fill="#fff">
                    <use xlink:href="#prefix__c"/>
                </mask>
                <use fill="#FFF" xlink:href="#prefix__c"/>
                <g mask="url(#prefix__d)" opacity=".801">
                    <g fill-rule="nonzero" opacity=".902">
                        <path fill="url(#prefix__e)" d="M19.825.264V9.48l-8.431 6.729h-1.6v-8.66c1.945-.044 3.589-.577 4.931-1.598 1.342-1.021 3.042-2.917 5.1-5.687z" transform="translate(21.022 31.868)"/>
                        <path fill="url(#prefix__f)" d="M11.08.264V9.48l-9.315 6.729H-.002v-8.66c2.219-.044 4.07-.577 5.552-1.598C7.033 4.93 8.877 3.034 11.08.264z" transform="translate(21.022 31.868) matrix(-1 0 0 1 11.078 0)"/>
                    </g>
                </g>
                <path fill="#CCC" d="M10.038 33.129s4.557 4.147 11.631 4.903c-1.78 2.117 1.923 5.465 9.946 5.465 7.929 0 11.11-3.953 10.516-5.314 10.113-2.743 14.48.41 15.762 5.422 2.232 8.683 7.027 33.371 7.027 33.371L-2.282 72.96s2.824-21.34 2.92-30.11c.118-4.71 9.4-9.72 9.4-9.72zM21.653 11.062l-1.001 2.741s-.33 2.64-.33 3.002c0 .362.162 3.237.162 3.237l-.108 2.995s-3.037-4.071-4.104-4.613c-1.066-.542-8.575-2.758-8.575-2.758L18.364.682S30.898-.312 31.609-.492c.711-.181 8.623-.09 10.134.27 1.511.361 7.822 2.799 8.8 4.424.978 1.625 4.09 10.923 4.09 10.923s-5.423 7.402-6.046 7.221c-.622-.18-4.075-2.395-4.075-2.395l-.991-.54-.72.894-1.055 1.19-.545.695-.23-2.966s-.507-3.79-.774-4.242c-.267-.45-.355-2.549-.355-3 0-.452-1.611-1.903-1.611-1.903s-.118-.785-1.587-.69c-1.32.085-2.923.359-4.732.359-1.255 0-2.007.154-2.92-.091-1.555-.419-2.16-.463-2.16-.463l-2.667-.207-2.512 2.075z" mask="url(#prefix__d)"/>
                <path fill="#FFF" d="M30.67 49.651c-3.542-1.909-6.014-3.41-7.417-4.5-1.377-1.078-2.383-2.261-3.018-3.55l2.414-1.177c1.898.838 3.596 1.467 5.094 1.886 1.499.42 2.617.58 3.356.48.9.144 1.984.039 3.254-.317s3.002-1.039 5.196-2.05l2.414 1.179c-.635 1.288-1.64 2.47-3.018 3.549-1.46 1.135-4.075 2.712-7.846 4.731z" mask="url(#prefix__d)"/>
                <path stroke="#CCC" d="M42.98 20.499l.69-.394s1.09.255 1.006.935c-.084.68-.43 1.813-.597 2.494-.167.68-.242 1.814-.326 2.154-.084.34-.51 2.058-1.18 2.314-.46.146-.952.15-1.414.01 0 0-.733 3.769-1.062 4.343-.688 1.202-.77 1.895-.77 1.895-.13.692-.211 1.393-.241 2.098v4.167l1.761.833 1.116.43M20.497 41.559c.79-.222 1.336-.406 1.64-.553.304-.147.645-.392 1.023-.736v-3.751c.048-1.347-.607-2.896-.607-2.896-.322-.352-.587-.753-.786-1.19-.486-1.201-1.475-4.421-1.475-4.421-.37-.086-.734-.2-1.088-.34-.67-.255-.837-1.445-.92-1.785-.085-.34-.42-1.871-.587-2.55-.168-.68-.837-1.616-.92-2.296-.085-.68 1.543-.314 1.543-.314" mask="url(#prefix__d)" opacity=".696"/>
            </g>
        </g>
    </g>
</svg>
